<?xml version="1.0" encoding="UTF-8" standalone="no"?>
<svg width="378px" height="219px" viewBox="0 0 378 219" version="1.1" xmlns="http://www.w3.org/2000/svg" xmlns:xlink="http://www.w3.org/1999/xlink" xmlns:sketch="http://www.bohemiancoding.com/sketch/ns">
    <title>World</title>
    <description>Created with Sketch (http://www.bohemiancoding.com/sketch)</description>
    <defs></defs>
    <g id="Page-1" stroke="none" stroke-width="1" fill="none" fill-rule="evenodd" sketch:type="MSPage">
        <g id="Calque_2" sketch:type="MSLayerGroup" stroke-width="0.2841" stroke="#000000" fill="#000000">
            <g id="Group" sketch:type="MSShapeGroup">
                <path d="M5.194,34.145 L5.336,32.795 L11.303,29.883 L11.303,29.244 L9.599,28.818 L9.599,27.184 L11.374,23.632 L14.001,23.49 L18.973,21.999 L20.394,17.879 L26.43,14.755 L30.764,14.612 L38.149,12.694 L39.358,12.694 L45.253,16.033 L53.562,17.667 L62.228,17.454 L67.341,21.644 L69.401,21.786 L71.532,21.005 L73.236,20.934 L80.694,23.847 L85.026,22.284 L85.098,21.431 L84.316,19.513 L86.234,18.235 L87.371,18.164 L87.797,18.732 L88.009,21.359 L92.129,22.284 L92.414,21.289 L93.479,21.075 L94.544,22.284 L94.402,23.349 L92.342,25.622 L86.163,26.048 L82.257,28.747 L76.433,30.38 L74.586,32.937 L72.668,36.275 L72.243,38.761 L74.87,40.537 L77.143,42.81 L78.99,43.022 L78.99,44.514 L77.853,46.93 L77.782,48.705 L80.339,48.42 L83.038,43.377 L86.092,41.459 L86.447,38.975 L91.207,32.439 L95.183,32.298 L97.313,35.636 L97.03,36.63 L96.675,37.695 L99.445,38.051 L101.362,35.565 L102.144,35.565 L102.64,40.679 L105.269,46.646 L105.553,48.207 L104.629,49.912 L99.089,52.54 L96.958,52.682 L96.319,52.043 L91.987,52.114 L85.878,55.807 L85.878,56.73 L86.518,56.73 L90.496,54.528 L93.905,54.315 L93.621,54.955 L92.555,56.092 L92.697,58.222 L95.183,59.359 L95.041,60.707 L91.49,61.489 L90.496,62.199 L90.496,62.91 L89.714,62.768 L89.572,61.915 L91.207,60.992 L91.276,59.501 L88.222,60.282 L83.89,62.768 L82.328,65.324 L79.132,65.751 L76.006,70.155 L74.941,71.787 L73.805,72 L74.302,69.94 L73.379,69.94 L71.746,74.913 L67.555,78.037 L64.5,81.376 L64.003,85.069 L63.293,89.402 L63.008,91.035 L62.085,91.106 L60.949,88.124 L60.807,83.578 L59.031,82.725 L56.262,82.584 L54.273,83.081 L54.131,84.714 L52.213,84.856 L50.082,83.933 L46.104,83.862 L42.554,87.271 L40.139,91.604 L39.428,96.647 L40.565,99.771 L41.559,101.477 L45.963,101.548 L47.951,98.352 L52.64,97.57 L52.64,99.274 L49.159,105.383 L48.946,106.519 L55.409,106.661 L54.628,112.485 L54.628,115.255 L55.835,115.823 L56.545,117.172 L57.966,118.025 L59.315,117.457 L60.452,116.817 L61.446,117.243 L62.228,118.237 L62.299,118.735 L63.506,118.735 L64.855,115.042 L66.773,114.474 L68.904,113.266 L70.396,112.2 L71.105,112.414 L71.035,113.337 L70.182,113.977 L69.969,115.042 L69.472,115.61 L69.365,116.959 L70.182,117.706 L71.354,117.279 L71.354,114.616 L72.243,112.698 L73.343,112.84 L76.575,115.504 L79.061,115.965 L80.623,115.326 L81.795,115.148 L82.399,115.361 L83.5,117.208 L85.346,119.02 L86.767,120.191 L88.791,122.429 L93.585,123.458 L95.29,125.27 L96.782,127.116 L97.633,129.709 L97.101,131.591 L96.284,132.834 L95.467,134.006 L95.539,134.681 L96.354,134.716 L96.354,133.971 L98.166,133.011 L98.841,132.62 L100.013,132.728 L100.155,133.296 L100.226,133.936 L99.8,134.787 L98.947,135.106 L98.166,135.143 L98.166,135.604 L98.166,136.207 L99.8,136.137 L100.9,135.178 L101.398,133.615 L102.499,133.366 L103.707,134.787 L105.056,135.568 L108.855,137.131 L111.768,137.451 L115.922,139.937 L117.591,139.972 L118.479,145.618 L113.472,152.508 L114.147,155.597 L114.111,159.219 L112.478,164.547 L111.661,168.134 L107.222,169.838 L103.564,172.146 L103.032,177.828 L101.683,181.913 L100.226,185.712 L98.628,187.878 L97.42,187.985 L94.366,186.138 L93.088,186.031 L96.462,190.257 L95.183,192.282 L94.011,193.879 L92.058,194.021 L90.638,194.591 L90.638,195.407 L91.312,195.798 L90.744,197.289 L89.039,197.929 L88.685,198.106 L88.685,199.101 L90.069,200.485 L89.537,203.433 L88.151,205.741 L91.207,207.907 L91.17,209.187 L90.425,210.606 L90.389,213.518 L91.241,215.649 L90.105,217.283 L90.105,218.312 L89.146,218.419 L87.512,217.105 L87.158,215.542 L85.914,215.294 L81.653,208.014 L80.872,207.623 L80.304,207.517 L80.375,206.63 L81.404,205.776 L81.511,204.604 L79.771,199.562 L77.179,198.07 L76.966,196.686 L76.681,194.732 L76.113,193.205 L76.433,189.547 L76.752,189.334 L76.717,184.753 L75.687,183.12 L75.651,178.29 L75.296,176.052 L74.977,173.708 L74.657,170.939 L74.408,168.168 L74.195,165.825 L73.521,163.41 L72.917,162.345 L70.004,159.788 L68.371,158.438 L65.211,154.993 L63.435,152.543 L62.263,150.412 L60.771,147.571 L60.097,146.188 L59.386,144.233 L56.901,142.67 L56.794,139.227 L58.214,137.77 L58.25,136.847 L57.185,136.847 L57.149,134.716 L58.001,130.952 L61.375,127.471 L61.446,122.749 L61.375,120.795 L60.878,119.339 L60.346,118.807 L59.741,118.735 L59.031,119.268 L58.854,120.759 L57.327,120.902 L54.77,118.487 L52.427,116.889 L51.432,115.646 L51.254,114.048 L50.295,112.308 L49.514,110.78 L47.88,110.852 L45.395,109.04 L44.365,108.365 L43.299,107.584 L42.305,106.199 L41.274,105.454 L40.529,105.985 L39.18,106.625 L34.066,103.82 L31.438,102.15 L29.378,100.482 L28.349,98.706 L28.668,97.286 L28.455,93.521 L26.253,88.869 L24.726,85.141 L23.98,82.157 L23.945,78.074 L23.874,75.979 L23.377,75.979 L22.844,77.505 L22.098,80.347 L21.885,82.229 L22.454,84.11 L23.803,88.407 L24.797,92.314 L24.833,93.308 L23.59,93.237 L22.844,90.929 L21.672,88.905 L20.465,86.597 L20.252,84.962 L21.104,82.655 L20.5,81.163 L20.181,78.783 L19.896,77.435 L19.79,75.268 L17.766,73.28 L17.695,70.118 L18.192,66.639 L19.542,63.123 L23.306,56.801 L25.685,52.646 L27.496,50.267 L28.739,50.267 L29.023,51.154 L29.663,51.262 L29.698,50.019 L30.231,46.893 L29.485,44.976 L29.521,42.702 L30.835,38.548 L32.148,35.139 L32.824,33.398 L32.788,32.439 L32.148,32.546 L31.367,32.973 L30.302,32.973 L29.875,32.298 L29.627,31.41 L29.201,30.273 L27.781,29.954 L25.969,28.712 L25.152,28.001 L24.371,28.001 L23.554,28.854 L22.17,29.563 L21.281,29.918 L20.358,30.024 L19.115,29.954 L18.867,29.457 L19.648,28.676 L20.571,28.285 L21.565,27.468 L22.489,26.9 L22.56,26.26 L21.743,26.26 L19.471,27.29 L10.841,31.693 L7.29,33.505 L5.976,34.145 L5.194,34.145 Z M5.194,34.145" id="Shape"></path>
                <path d="M0.649,34.783 L0.649,33.647 L2.282,33.221 L3.418,33.79 L3.49,34.499 L2.566,34.783 L0.649,34.783 Z M0.649,34.783" id="Shape"></path>
                <path d="M26.786,46.646 L26.644,45.296 L28.135,45.438 L28.419,46.361 L29.272,47.426 L29.272,49.485 L28.775,49.557 L27.639,48.349 L27.639,46.857 L26.786,46.646 Z M26.786,46.646" id="Shape"></path>
                <path d="M70.04,61.56 L70.892,61.631 L72.029,59.501 L72.597,59.43 L73.307,60.21 L73.947,60.141 L73.947,58.791 L72.739,56.943 L70.75,56.73 L70.253,56.021 L70.04,53.818 L68.691,52.398 L66.417,52.896 L63.08,54.528 L63.151,55.311 L64.287,55.665 L66.276,55.238 L67.91,55.807 L69.401,56.305 L69.472,57.369 L66.276,57.583 L64.998,58.506 L64.216,60.354 L63.151,62.626 L63.435,63.763 L65.353,62.271 L65.779,60.495 L67.271,59.074 L68.691,58.648 L69.898,59.146 L70.04,61.56 Z M70.04,61.56" id="Shape"></path>
                <path d="M67.91,64.543 L67.91,63.62 L69.898,63.265 L71.674,62.91 L73.521,62.412 L75.58,61.986 L76.646,61.276 L77.995,61.134 L77.853,61.915 L76.29,62.839 L73.449,63.052 L72.597,63.975 L69.685,64.686 L67.91,64.543 Z M67.91,64.543" id="Shape"></path>
                <path d="M99.8,54.386 L104.487,51.048 L105.553,50.693 L105.766,51.403 L105.056,53.321 L105.766,54.244 L106.05,56.517 L105.694,58.506 L103.849,57.512 L102.499,56.73 L100.369,56.73 L99.8,55.097 L99.8,54.386 Z M99.8,54.386" id="Shape"></path>
                <path d="M124.304,2.041 L124.445,2.822 L120.965,5.024 L117.414,5.166 L113.65,6.444 L109.814,10.351 L108.039,10.564 L105.411,10.777 L104.346,9.57 L104.203,8.575 L106.121,6.871 L109.389,5.521 L112.229,4.598 L112.3,3.889 L109.814,3.461 L106.405,3.816 L104.701,3.533 L104.701,2.609 L107.328,2.041 L110.099,1.117 L113.437,1.117 L115.07,2.183 L117.556,2.183 L120.184,2.183 L123.309,1.971 L124.304,2.041 Z M124.304,2.041" id="Shape"></path>
                <path d="M85.595,30.309 L84.671,29.386 L84.671,28.604 L87.299,26.9 L88.72,26.9 L89.43,27.396 L89.43,28.959 L89.998,29.67 L90.069,30.664 L89.146,30.806 L88.507,29.67 L87.371,29.457 L86.66,29.812 L86.447,30.451 L85.595,30.309 Z M85.595,30.309" id="Shape"></path>
                <path d="M64.642,16.033 L67.413,15.891 L69.117,14.186 L73.449,12.908 L73.379,12.269 L70.75,10.777 L68.335,11.487 L66.133,13.548 L64.003,15.181 L64.642,16.033 Z M64.642,16.033" id="Shape"></path>
                <path d="M77.143,10.564 L77.143,12.553 L81.618,12.411 L83.535,11.984 L84.813,10.493 L84.245,9.001 L83.109,8.931 L82.044,10.493 L81.618,10.493 L81.333,10.28 L80.339,9.144 L79.061,9.356 L77.143,10.564 Z M77.143,10.564" id="Shape"></path>
                <path d="M69.188,17.099 L69.188,16.175 L72.456,14.258 L74.372,14.115 L77.498,15.394 L79.416,16.033 L79.416,17.099 L78.35,18.092 L78.776,18.732 L79.061,19.513 L78.635,19.868 L77.143,20.082 L76.148,20.934 L74.799,20.579 L73.663,20.01 L70.963,20.01 L68.193,20.223 L66.631,19.017 L66.702,18.164 L69.188,17.951 L70.821,18.306 L70.892,17.524 L69.472,17.099" id="Shape"></path>
                <path d="M82.47,14.968 L85.098,13.405 L87.867,13.973 L87.583,15.109 L86.874,16.46 L85.595,17.737 L83.606,17.667 L82.47,16.53 L82.47,14.968 Z M82.47,14.968" id="Shape"></path>
                <path d="M88.365,15.678 L88.507,16.956 L89.572,17.027 L91.348,16.175 L93.55,15.038 L93.55,13.973 L91.207,14.115 L89.785,14.542 L88.365,15.678 Z M88.365,15.678" id="Shape"></path>
                <path d="M88.436,10.777 L88.791,12.979 L89.643,12.837 L91.418,11.629 L91.49,10.707 L90.638,9.997 L89.572,9.712 L88.649,10.066 L88.436,10.777 Z M88.436,10.777" id="Shape"></path>
                <path d="M94.047,10.209 L94.899,12.623 L98.308,13.548 L104.416,13.548 L103.849,12.126 L97.882,12.056 L96.106,9.783 L94.047,10.209 Z M94.047,10.209" id="Shape"></path>
                <path d="M92.555,19.229 L92.272,17.312 L96.106,14.684 L98.451,14.755 L99.729,14.825 L99.942,15.464 L99.658,16.104 L100.369,17.099 L103.422,16.53 L104.559,17.879 L107.044,19.229 L108.394,20.862 L108.11,21.999 L107.187,22.923 L107.187,23.49 L110.951,25.835 L110.737,26.9 L106.902,29.172 L105.766,28.533 L104.914,27.042 L104.487,27.184 L104.346,29.386 L102.286,33.292 L101.504,33.576 L100.155,32.512 L97.101,29.527 L93.479,29.527 L92.768,28.818 L94.544,27.042 L95.467,27.042 L97.527,27.042 L101.362,23.136 L102.57,21.999 L101.93,20.934 L98.166,20.508 L95.041,20.01 L92.555,19.229 Z M92.555,19.229" id="Shape"></path>
                <path d="M56.119,96.292 L56.119,95.724 L57.61,94.87 L63.008,95.084 L69.046,99.274 L69.046,100.127 L68.833,100.482 L64.5,100.482 L64.927,99.417 L64.146,98.848 L62.725,97.782 L61.659,96.362 L56.119,96.292 Z M56.119,96.292" id="Shape"></path>
                <path d="M62.795,102.329 L65.069,102.257 L64.927,103.536 L63.506,103.536 L62.725,103.11 L62.795,102.329 Z M62.795,102.329" id="Shape"></path>
                <path d="M67.838,102.542 L67.91,103.039 L69.827,103.11 L71.46,103.394 L71.958,103.606 L73.379,102.896 L76.078,102.613 L76.078,101.831 L74.586,101.689 L72.953,100.41 L70.892,100.766 L69.898,100.908 L70.182,102.187 L67.981,102.257" id="Shape"></path>
                <path d="M78.208,102.684 L79.558,102.613 L80.126,103.464 L78.208,103.749 L77.498,103.251 L78.208,102.684 Z M78.208,102.684" id="Shape"></path>
                <path d="M83.322,105.383 L83.961,107.016 L85.026,106.731 L85.098,105.81 L84.529,105.312 L83.251,105.099" id="Shape"></path>
                <path d="M83.819,107.584 L84.885,107.584 L84.956,110.141 L84.104,109.998 L83.819,108.934 L83.819,107.584 Z M83.819,107.584" id="Shape"></path>
                <path d="M142.272,0.407 L152.5,0.691 L152.5,1.473 L151.506,2.112 L149.375,2.538 L149.375,3.107 L150.583,3.746 L152.216,4.527 L153.565,5.521 L155.199,5.095 L156.833,4.172 L159.461,4.313 L161.237,4.527 L161.379,5.38 L160.171,5.592 L157.331,6.729 L156.904,7.651 L154.063,9.215 L151.435,11.274 L151.506,13.334 L153.779,14.612 L153.779,15.322 L152.216,17.454 L151.009,18.661 L149.801,18.661 L149.233,18.092 L148.026,18.661 L148.097,19.868 L149.446,21.075 L149.446,21.786 L148.026,21.929 L147.245,21.359 L146.677,21.359 L146.677,22.354 L148.381,23.064 L149.517,23.206 L149.091,24.556 L145.966,24.769 L141.065,25.479 L135.597,27.609 L130.909,29.102 L124.587,36.985 L123.238,37.695 L121.321,35.777 L119.119,34.499 L119.119,28.747 L122.172,24.556 L124.232,20.934 L122.883,17.879 L122.03,13.689 L119.544,11.771 L117.556,11.842 L115.852,11.842 L115.639,9.997 L117.13,8.931 L117.982,9.144 L120.042,9.144 L121.037,8.361 L121.037,6.871 L132.613,2.041 L134.602,1.898 L136.377,3.035 L140.853,2.822 L142.272,0.407 Z M142.272,0.407" id="Shape"></path>
                <path d="M145.753,28.959 L146.748,27.965 L147.812,27.895 L148.665,29.315 L149.73,29.315 L151.151,28.676 L153.851,28.249 L154.773,29.527 L154.347,31.445 L152.287,32.795 L148.949,32.653 L146.818,32.014 L146.818,31.019 L146.037,30.664 L145.753,28.959 Z M145.753,28.959" id="Shape"></path>
                <path d="M155.768,51.972 L156.336,50.764 L155.768,50.408 L156.265,48.989 L157.543,46.857 L159.177,46.147 L160.668,46.147 L161.45,46.361 L160.597,48.207 L159.816,50.125 L158.111,52.256 L157.473,52.185 L156.975,51.759 L156.336,51.972 L155.768,51.972 Z M155.768,51.972" id="Shape"></path>
                <path d="M164.859,40.396 L164.859,40.963 L164.433,41.531 L165.569,42.028 L166.066,43.022 L164.859,43.663 L165.001,44.656 L165.924,46.219 L166.706,48.136 L167.558,49.77 L169.12,49.983 L169.049,51.048 L168.055,52.398 L165.782,53.037 L162.941,53.464 L160.668,53.96 L160.81,53.108 L162.444,52.611 L162.444,51.901 L161.947,51.262 L162.657,49.628 L164.291,48.491 L164.362,46.787 L163.296,46.502 L161.662,44.727 L161.662,42.454 L162.657,40.537 L164.859,40.396 Z M164.859,40.396" id="Shape"></path>
                <path d="M155.484,74.132 L155.484,66.319 L155.697,64.686 L157.331,64.188 L159.816,64.188 L162.23,64.757 L163.438,64.97 L164.859,64.188 L164.504,63.123 L165.214,61.915 L165.072,59.501 L163.509,58.506 L162.088,57.796 L161.592,57.369 L161.45,56.375 L164.006,56.375 L164.291,55.238 L163.793,54.6 L164.93,54.528 L165.569,55.452 L166.918,55.452 L169.617,52.611 L170.683,52.114 L171.393,51.048 L172.174,50.551 L172.459,51.546 L172.956,51.475 L172.885,49.273 L174.376,48.847 L176.294,48.278 L176.72,46.646 L176.578,44.229 L176.437,42.951 L177.573,42.17 L178.637,41.957 L178.993,43.236 L178.993,44.798 L178.283,45.579 L178.283,46.93 L179.277,47.354 L181.195,47.568 L182.544,47.497 L184.177,46.93 L185.527,46.787 L187.232,46.716 L188.298,47.071 L189.007,46.93 L189.504,45.082 L190.285,43.165 L190.925,42.241 L191.848,42.312 L192.204,42.667 L193.269,42.241 L193.269,41.318 L192.842,39.685 L195.399,39.4 L196.677,39.4 L198.169,38.619 L197.602,37.695 L197.105,37.553 L195.826,37.625 L194.761,37.979 L193.482,38.619 L191.777,38.548 L189.931,34.926 L189.931,33.79 L191.494,32.298 L192.701,30.877 L192.701,29.102 L191.99,29.102 L190.997,28.676 L189.718,30.024 L188.51,31.517 L188.439,32.512 L187.019,33.435 L185.882,35.849 L186.592,37.625 L186.592,38.975 L185.456,40.892 L184.675,42.81 L184.675,43.663 L183.965,44.442 L183.112,44.94 L182.687,45.722 L181.409,45.792 L181.053,44.302 L180.626,42.88 L179.774,42.17 L179.774,40.608 L179.277,40.749 L179.277,39.685 L177.999,40.396 L177.288,40.537 L176.791,41.247 L175.229,41.318 L174.376,40.181 L174.376,36.134 L176.294,34.783 L177.999,33.15 L181.409,29.954 L183.894,27.468 L187.16,24.343 L192.63,20.65 L195.045,20.65 L197.318,21.715 L198.667,22.354 L202.36,23.774 L205.556,25.977 L206.48,25.977 L207.119,26.971 L207.688,27.256 L207.688,28.462 L207.119,29.172 L205.627,29.244 L203.924,28.392 L202.36,27.822 L200.728,27.325 L200.655,28.747 L201.721,29.599 L202.999,30.309 L204.917,32.298 L206.196,32.298 L208.61,29.812 L209.392,29.599 L210.67,28.462 L210.954,28.959 L212.091,29.031 L212.091,27.681 L211.381,27.042 L211.381,26.048 L210.527,25.55 L210.527,24.272 L211.381,24.272 L212.942,25.266 L213.014,26.758 L213.654,26.829 L216.068,26.19 L218.909,25.053 L221.182,24.343 L224.733,23.349 L228.284,23.064 L230.132,24.2 L231.622,24.059 L231.622,23.136 L230.486,21.572 L229.562,21.359 L229.492,20.01 L231.622,17.879 L231.978,17.24 L233.754,17.099 L234.108,17.667 L233.968,19.442 L237.375,23.988 L237.375,25.622 L236.097,26.26 L235.671,27.113 L237.447,27.113 L238.654,26.048 L238.726,23.988 L240.571,23.988 L241.354,23.774 L241.211,22.994 L238.584,22.213 L236.666,20.862 L235.743,18.874 L240.005,16.46 L241.779,14.968 L244.193,12.979 L250.231,11.062 L252.646,10.564 L261.95,10.493 L263.37,10.919 L263.016,12.34 L261.026,15.038 L261.169,15.322 L261.879,15.394 L265.289,13.759 L269.267,13.548 L282.833,15.891 L284.394,16.175 L287.804,15.891 L288.301,14.542 L289.012,13.405 L291.142,13.548 L296.822,14.896 L302.222,14.684 L306.057,14.542 L310.248,15.82 L313.729,15.749 L317.634,13.973 L321.043,14.045 L329.212,14.968 L334.822,16.53 L337.948,17.24 L339.509,18.732 L339.509,19.442 L338.23,19.442 L336.526,18.945 L335.177,18.945 L334.325,19.017 L333.544,18.732 L332.833,18.945 L332.762,20.791 L335.035,21.715 L337.022,22.213 L337.876,22.852 L337.664,23.917 L335.391,27.325 L335.391,27.965 L332.266,28.249 L330.702,29.244 L331.484,30.593 L334.183,33.221 L336.668,37.127 L337.806,40.679 L337.806,42.951 L336.952,42.88 L335.533,41.247 L333.116,38.761 L329.921,35.99 L327.507,34.429 L327.578,32.368 L328.571,30.947 L328.146,28.604 L327.079,26.687 L326.37,26.615 L325.589,27.681 L325.092,27.681 L324.312,27.113 L323.102,27.325 L322.89,29.244 L323.742,31.019 L322.25,32.227 L319.622,32.653 L317.207,32.795 L314.793,32.937 L312.52,33.576 L311.951,34.216 L312.023,39.188 L313.869,41.176 L314.793,41.247 L315.148,40.749 L316.568,40.749 L318.203,42.099 L320.546,44.94 L322.322,48.065 L323.457,50.977 L324.24,54.884 L324.312,58.648 L320.901,59.784 L320.263,62.768 L319.978,65.324 L321.47,67.669 L323.457,70.438 L323.885,71.148 L323.885,72.285 L322.535,73.351 L321.327,73.989 L321.256,72.711 L319.978,70.509 L318.914,68.592 L317.35,67.455 L315.148,65.253 L314.58,65.253 L313.229,66.746 L312.023,66.247 L312.023,64.898 L312.379,64.33 L310.958,64.188 L308.756,66.461 L308.685,67.669 L310.105,69.018 L313.088,69.23 L314.58,69.657 L314.366,70.651 L313.585,71.006 L313.729,72.711 L316.568,77.327 L317.989,80.311 L317.136,80.808 L318.06,81.589 L318.983,82.584 L318.983,87.911 L317.492,89.899 L313.655,93.734 L310.318,95.935 L309.112,97.782 L308.187,97.782 L307.691,96.575 L306.696,95.794 L305.347,96.433 L303.784,100.197 L304.14,101.689 L307.335,104.602 L309.537,107.087 L309.678,111.846 L308.685,113.621 L307.619,114.971 L306.128,116.25 L305.489,117.387 L304.565,117.457 L304.494,116.179 L303.926,115.113 L302.861,114.474 L301.583,113.266 L301.44,111.846 L300.304,111.42 L299.239,110.709 L298.812,109.787 L297.32,109.787 L297.961,113.479 L297.961,116.392 L299.31,119.302 L300.587,121.293 L302.15,123.636 L303.215,126.051 L304.068,127.613 L303.713,128.68 L302.791,128.75 L301.512,127.4 L300.872,127.4 L298.6,122.429 L297.463,120.866 L295.476,118.807 L295.404,113.691 L295.12,110.213 L294.054,107.016 L292.776,103.891 L292.064,104.104 L291.07,105.312 L289.862,105.738 L288.797,105.24 L289.225,102.115 L286.667,99.274 L285.317,98.066 L285.104,96.931 L285.033,94.942 L283.471,94.942 L282.051,96.859 L280.914,96.718 L280.416,96.008 L279.068,96.647 L277.789,99.417 L276.014,101.76 L274.379,103.82 L271.964,107.3 L271.042,111.988 L270.543,115.255 L269.621,119.374 L268.627,119.232 L267.562,118.664 L266.284,115.397 L264.649,112.343 L261.808,105.951 L260.742,101.618 L260.458,97.144 L259.251,97.144 L259.04,99.203 L258.257,99.487 L256.979,98.777 L254.848,96.575 L254.138,95.297 L253.428,94.089 L251.794,92.526 L243.2,92.456 L241.637,91.959 L239.791,91.249 L239.791,89.828 L238.726,89.047 L237.163,89.26 L236.311,90.042 L234.038,90.042 L232.972,88.976 L230.486,86.632 L229.137,85.212 L227.575,85.354 L226.721,86.349 L226.936,87.057 L228.64,88.55 L229.492,90.183 L230.344,90.538 L230.558,91.604 L231.268,91.817 L232.333,91.249 L232.972,91.888 L232.972,93.806 L233.968,94.019 L235.884,94.231 L236.666,93.167 L237.59,91.675 L238.938,91.675 L238.868,93.451 L239.15,94.587 L240.288,95.084 L241.779,95.368 L242.562,95.794 L243.058,96.647 L241.708,100.766 L239.791,103.251 L237.803,105.099 L236.382,105.951 L233.826,107.655 L231.978,109.502 L230.203,110.709 L225.231,111.846 L223.739,112.2 L222.247,109.787 L221.607,108.507 L220.969,103.963 L217.347,99.062 L211.948,90.538 L210.457,86.632 L209.747,87.413 L209.32,87.271 L209.249,86.845 L207.829,86.774 L208.185,88.124 L208.967,90.396 L211.664,95.581 L213.938,99.203 L214.009,101.689 L216.991,104.743 L217.702,107.939 L218.554,108.437 L220.614,110.567 L222.532,112.627 L222.462,115.61 L223.669,115.751 L226.438,115.042 L230.913,113.55 L233.256,113.195 L233.398,114.332 L229.208,124.56 L225.585,129.389 L221.254,133.863 L217.914,137.983 L217.632,143.026 L219.193,152.686 L219.335,155.313 L216.424,158.438 L213.299,161.066 L210.67,163.268 L211.381,166.677 L211.31,170.229 L208.042,172.359 L208.042,173.496 L205.627,178.112 L202.218,182.018 L199.59,184.079 L196.891,184.434 L193.411,185.285 L191.777,186.636 L190.783,186.493 L190.356,185.712 L188.368,184.292 L188.084,180.669 L184.746,174.703 L183.965,169.305 L183.467,166.677 L180.698,160.498 L180.769,154.745 L183.325,149.773 L182.188,142.813 L180.201,138.622 L176.578,133.153 L177.217,130.313 L178.069,127.897 L178.212,126.122 L176.223,125.838 L174.021,125.838 L171.677,122.5 L169.262,122.784 L163.865,124.204 L157.117,126.335 L154.489,125.838 L148.594,119.517 L144.333,114.26 L142.912,111.136 L142.912,107.727 L143.835,104.245 L143.764,100.553 L144.119,97.641 L147.6,90.681 L149.446,88.55 L150.654,88.55 L153.495,85.141 L153.92,82.796 L154.419,81.589 L156.762,79.956 L157.615,78.819 L159.035,76.546 L159.958,76.546 L161.308,77.256 L162.941,77.186 L166.918,75.694 L170.186,74.983 L172.104,74.559 L174.021,74.061 L176.791,74.061 L179.987,74.273 L179.845,75.979 L179.064,78.037 L179.348,78.891 L180.698,80.097 L182.26,80.666 L184.604,80.95 L185.313,81.163 L185.811,82.939 L187.587,83.933 L190.356,84.43 L191.423,84.43 L191.563,83.436 L191.067,83.436 L191.139,82.157 L192.63,81.305 L194.831,80.808 L196.039,81.731 L197.602,82.868 L199.732,84.217 L201.649,84.217 L202.929,83.508 L205.06,83.081 L206.054,83.151 L207.332,83.293 L207.971,83.72 L208.753,82.37 L209.249,80.879 L209.89,78.748 L209.89,77.541 L209.89,75.836 L210.386,75.481 L210.386,74.842 L207.616,75.055 L205.627,74.983 L203.354,75.268 L200.939,75.339 L199.946,74.345 L199.306,72 L198.667,69.657 L199.946,69.657 L200.728,68.876 L201.366,68.449 L202.36,68.449 L203.994,68.165 L204.704,67.526 L205.556,66.958 L206.409,66.177 L208.255,66.177 L209.392,66.887 L211.097,67.171 L212.304,67.455 L213.654,67.669 L215.926,67.597 L215.855,66.177 L216.21,65.467 L215.429,64.757 L214.576,64.757 L213.512,63.903 L212.73,63.194 L211.238,62.341 L210.6,61.631 L210.812,60.495 L211.807,59.501 L212.518,59.074 L212.518,58.435 L211.664,58.222 L211.025,58.506 L208.042,59.998 L208.895,60.85 L208.895,61.773 L207.475,62.626 L206.55,62.626 L205.627,61.702 L204.988,59.643 L204.633,59.074 L203.781,59.359 L202.005,60.141 L201.083,62.768 L200.088,64.614 L200.088,66.532 L200.655,67.597 L199.021,69.089 L198.027,69.089 L197.105,68.449 L195.187,68.876 L194.831,69.94 L194.619,71.646 L194.619,72.427 L194.619,75.126 L192.984,75.41 L191.919,74.415 L191.919,72.427 L192.771,72.214 L191.563,71.575 L190.783,70.368 L189.86,68.236 L188.652,66.603 L187.089,65.608 L184.888,63.548 L183.538,62.98 L182.757,62.128 L182.331,61.418 L181.55,61.418 L181.266,62.555 L181.976,63.265 L182.757,64.686 L182.97,65.467 L184.533,66.247 L185.882,66.746 L185.882,67.739 L187.516,68.805 L188.439,69.728 L188.937,70.793 L188.439,70.793 L187.8,70.155 L187.302,70.155 L187.089,72.641 L186.734,73.208 L186.096,73.208 L185.953,71.22 L185.03,70.083 L183.894,68.876 L182.687,67.952 L181.195,67.81 L180.201,67.241 L178.851,65.041 L178.354,63.903 L177.359,63.123 L176.365,63.548 L174.802,65.253 L173.453,65.537 L172.743,64.757 L170.967,65.537 L170.612,66.958 L166.99,70.013 L165.569,73.066 L163.935,75.766 L162.941,75.694 L161.662,75.126 L160.526,75.41 L158.893,75.694 L157.401,74.983 L156.407,74.771 L155.484,74.132 Z M155.484,74.132" id="Shape"></path>
                <path d="M177.431,64.472 L176.437,65.608 L176.578,67.03 L176.578,67.526 L177.644,67.526 L177.928,67.1 L177.928,65.751 L177.431,64.472 Z M177.431,64.472" id="Shape"></path>
                <path d="M176.223,69.018 L176.791,68.521 L177.786,68.308 L177.856,68.876 L177.501,69.94 L177.786,70.155 L177.359,71.148 L176.791,71.29 L176.437,70.936 L176.152,69.799 L176.223,69.018 Z M176.223,69.018" id="Shape"></path>
                <path d="M181.621,72.996 L181.763,73.422 L183.112,74.345 L184.177,75.268 L185.456,75.126 L185.599,73.634 L184.888,72.854 L183.751,72.854 L181.621,72.996 Z M181.621,72.996" id="Shape"></path>
                <path d="M194.902,77.186 L194.902,76.688 L196.181,77.186 L198.667,77.114 L198.88,77.612 L197.602,78.251 L196.82,77.753 L195.968,77.541 L194.902,77.186 Z M194.902,77.186" id="Shape"></path>
                <path d="M206.054,77.896 L206.835,76.688 L208.967,76.05 L209.179,76.831 L208.469,77.753 L207.261,78.464 L206.55,78.535 L206.054,77.896 Z M206.054,77.896" id="Shape"></path>
                <path d="M216.495,17.17 L215.926,20.152 L218.839,20.65 L219.548,21.146 L222.034,21.075 L222.034,20.508 L220.188,20.082 L219.762,19.513 L219.122,17.027 L216.495,17.17 Z M216.495,17.17" id="Shape"></path>
                <path d="M217.418,16.388 L219.619,16.317 L220.756,15.252 L221.182,15.252 L222.462,14.258 L223.669,14.258 L226.154,12.411 L226.226,10.564 L225.585,10.493 L223.171,12.766 L221.892,12.766 L220.046,12.623 L219.193,13.619 L218.554,14.612 L217.632,14.755 L217.418,16.388 Z M217.418,16.388" id="Shape"></path>
                <path d="M319.127,40.749 L319.339,40.04 L320.263,40.11 L320.973,40.82 L322.25,42.667 L323.67,44.158 L324.381,44.158 L326.867,46.857 L327.933,47.426 L327.791,47.994 L327.436,48.775 L328.43,50.551 L329.283,51.332 L330.205,52.043 L330.205,53.037 L329.565,53.037 L329.565,53.392 L328.785,53.392 L327.862,51.19 L326.583,50.408 L325.589,48.989 L323.885,46.93 L322.037,44.869 L320.334,42.028 L319.127,40.749 Z M319.127,40.749" id="Shape"></path>
                <path d="M329.779,55.807 L329.921,55.097 L331.058,54.6 L331.91,55.025 L332.905,55.025 L334.396,55.311 L335.035,55.594 L336.029,56.446 L336.029,57.653 L335.177,58.577 L334.893,59.288 L333.97,59.43 L333.259,58.933 L332.549,58.933 L332.479,60.354 L331.341,60.354 L330.702,59.43 L330.277,58.577 L330.489,57.725 L330.845,57.085 L330.702,56.588 L329.779,55.807 Z M329.779,55.807" id="Shape"></path>
                <path d="M332.123,61.276 L333.259,61.205 L334.537,62.341 L335.957,64.614 L336.812,67.384 L337.45,69.23 L337.095,71.858 L335.248,72.072 L334.183,71.006 L332.194,71.006 L330.277,72.143 L330.205,74.061 L328.928,74.629 L327.647,74.415 L327.507,73.492 L328.785,71.93 L331.769,69.728 L331.839,67.952 L332.479,67.952 L333.544,68.379 L334.183,66.247 L333.188,65.396 L332.407,62.91 L332.123,61.276 Z M332.123,61.276" id="Shape"></path>
                <path d="M327.15,76.618 L328.217,76.688 L328.358,77.327 L328.714,78.606 L329.212,79.388 L330.205,79.316 L330.915,78.181 L329.992,76.972 L329.141,75.268 L327.933,75.126 L327.223,75.339 L327.009,76.333" id="Shape"></path>
                <path d="M331.058,73.705 L332.479,73.563 L333.188,73.137 L334.183,72.143 L333.4,71.787 L331.98,72.072 L331.271,72.641 L331.058,73.705 Z M331.058,73.705" id="Shape"></path>
                <path d="M285.033,42.454 L285.602,41.815 L285.956,42.454 L285.886,45.438 L285.39,46.857 L284.607,47.781 L283.541,48.065 L283.541,47.214 L284.607,46.219 L285.176,44.656 L285.033,42.454 Z M285.033,42.454" id="Shape"></path>
                <path d="M228.854,60.636 L228.143,60.636 L227.929,61.489 L227.077,61.986 L226.438,62.483 L226.651,63.123 L227.504,63.763 L229.208,66.105 L229.208,68.308 L230.415,69.302 L231.41,70.793 L231.906,72.711 L232.617,73.634 L232.547,74.345 L231.268,75.126 L230.273,75.126 L227.718,73.705 L226.084,73.28 L226.084,70.936 L226.936,68.521 L225.018,66.461 L222.105,63.335 L222.034,61.276 L224.023,59.643 L226.863,58.719 L227.929,58.364 L228.925,58.577 L229.421,59.216 L229.351,60.068 L228.854,60.636 Z M228.854,60.636" id="Shape"></path>
                <path d="M237.163,58.079 L238.797,58.079 L239.081,58.577 L239.364,61.134 L238.584,62.626 L237.447,62.98 L236.097,62.98 L235.671,61.347 L235.743,59.714 L236.524,58.861 L237.163,58.079 Z M237.163,58.079" id="Shape"></path>
                <path d="M252.576,58.577 L251.864,58.719 L252.006,59.571 L252.646,59.784 L253.215,60.424 L253.782,60.495 L253.996,59.571 L253.996,58.861 L255.984,58.791 L257.547,58.648 L258.896,58.222 L258.896,57.512 L257.831,57.512 L257.263,57.867 L256.482,57.653 L255.487,57.299 L254.777,57.015 L253.854,57.015 L253.144,57.583 L252.576,58.577 Z M252.576,58.577" id="Shape"></path>
                <path d="M207.971,132.017 L209.747,131.378 L210.67,131.449 L211.807,131.804 L211.735,132.373 L211.168,133.296 L210.386,134.361 L210.386,136.137 L208.967,136.279 L207.688,135.143 L207.971,132.017 Z M207.971,132.017" id="Shape"></path>
                <path d="M204.633,138.907 L204.562,142.103 L205.77,144.446 L206.55,144.518 L206.55,143.026 L205.556,141.179 L205.556,139.759 L205.272,138.765 L204.633,138.907 Z M204.633,138.907" id="Shape"></path>
                <path d="M209.89,147.217 L210.741,146.933 L210.812,148.495 L211.168,151.762 L211.451,154.177 L210.741,153.893 L210.245,153.04 L210.103,151.265 L210.174,148.921 L209.89,147.217 Z M209.89,147.217" id="Shape"></path>
                <path d="M223.241,162.912 L223.313,160.995 L222.817,160.782 L223.597,157.87 L225.656,156.308 L226.863,155.384 L227.929,153.68 L230.629,150.768 L231.196,150.625 L231.268,152.756 L231.339,157.16 L228.64,164.547 L227.007,170.584 L224.308,171.508 L222.817,171.578 L221.679,169.092 L221.538,166.677 L223.241,162.912 Z M223.241,162.912" id="Shape"></path>
                <path d="M237.447,164.121 L237.59,165.114 L238.37,165.612 L239.293,165.612 L239.435,164.973 L238.37,164.121 L237.447,164.121 Z M237.447,164.121" id="Shape"></path>
                <path d="M240.927,162.7 L241.425,162.7 L241.637,163.553 L241.211,164.263 L240.5,164.191 L240.927,162.7 Z M240.927,162.7" id="Shape"></path>
                <path d="M321.043,89.473 L322.181,89.189 L322.749,91.035 L322.749,91.888 L323.315,94.587 L322.322,94.587 L321.043,93.451 L320.475,91.745 L321.043,89.473 Z M321.043,89.473" id="Shape"></path>
                <path d="M322.605,100.269 L324.594,100.127 L326.016,101.974 L325.163,104.245 L326.016,106.945 L328.004,107.513 L329.707,108.934 L329.992,109.929 L328.856,109.929 L327.15,108.224 L324.879,108.365 L322.89,105.524 L322.605,104.104 L323.173,103.394 L322.89,101.405 L322.605,100.269 Z M322.605,100.269" id="Shape"></path>
                <path d="M272.177,116.036 L273.74,118.451 L275.02,119.872 L274.167,121.86 L272.036,122.429 L271.042,120.581 L271.326,118.451 L271.752,116.746 L272.177,116.036 Z M272.177,116.036" id="Shape"></path>
                <path d="M293.485,122.854 L298.173,126.69 L302.435,131.235 L305.134,134.219 L306.837,136.207 L306.555,138.338 L306.555,140.042 L304.707,140.469 L301.583,137.486 L298.03,131.804 L295.332,127.827 L293.201,124.701 L292.349,124.701 L292.207,123.423 L293.485,122.854 Z M293.485,122.854" id="Shape"></path>
                <path d="M304.85,142.6 L305.56,141.321 L307.832,140.61 L309.537,141.321 L312.946,141.747 L314.937,142.6 L317.207,144.446 L317.776,146.292 L316.355,146.152 L314.937,145.299 L312.946,145.157 L311.099,144.446 L307.691,143.594 L306.555,142.6 L304.85,142.6 Z M304.85,142.6" id="Shape"></path>
                <path d="M324.326,113.059 L323.988,114.67 L322.971,116.45 L322.123,116.45 L322.207,115.094 L323.055,114.076 L323.395,113.059 L324.241,112.805" id="Shape"></path>
                <path d="M327.378,111.534 L328.988,111.788 L328.988,112.551 L328.226,113.653 L327.293,113.907 L327.039,112.636 L327.378,111.534 Z M327.378,111.534" id="Shape"></path>
                <path d="M325.937,117.552 L326.616,116.536 L327.463,116.026 L328.057,116.026 L328.649,115.772 L329.159,114.755 L330.091,114.755 L330.43,115.688 L331.108,116.958 L329.498,119.502 L327.887,119.586 L327.802,118.146 L327.547,117.807 L326.276,117.891 L325.937,117.552 Z M325.937,117.552" id="Shape"></path>
                <path d="M321.867,120.604 L322.717,121.366 L323.309,122.13 L324.072,123.231 L322.631,124.503 L322.207,126.706 L323.225,128.062 L323.818,129.928 L322.293,131.453 L320.937,134.505 L319.749,137.557 L318.903,138.235 L317.29,138.235 L312.714,136.115 L311.781,133.234 L311.188,130.437 L311.188,128.91 L311.867,128.91 L315.681,126.453 L318.055,123.655 L319.324,121.96 L319.749,120.519 L321.867,120.604 Z M321.867,120.604" id="Shape"></path>
                <path d="M336.787,127.639 L337.348,128.571 L337.348,130.86 L336.873,132.131 L336.278,132.131 L335.601,130.944 L335.517,129.588 L335.686,128.232 L336.449,127.47 L336.787,127.639 Z M336.787,127.639" id="Shape"></path>
                <path d="M331.786,129.42 L332.38,129.334 L332.463,129.927 L331.786,130.691 L330.092,130.775 L326.616,131.029 L326.191,133.742 L327.971,132.894 L329.413,132.131 L330.601,132.302 L330.514,132.979 L329.666,133.064 L327.971,134.336 L327.803,135.522 L329.073,137.217 L329.413,138.404 L328.736,139.591 L327.125,140.015 L327.039,138.828 L326.869,136.201 L325.937,136.201 L325.598,137.726 L326.022,140.438 L325.853,140.862 L324.667,140.862 L324.667,138.404 L323.988,136.879 L323.988,134.166 L325.259,130.605 L326.022,129.504 L327.971,129.504 L328.226,130.098 L330.008,130.098 L331.786,129.42 Z M331.786,129.42" id="Shape"></path>
                <path d="M319.156,146.372 L319.833,145.439 L320.682,145.016 L322.802,145.016 L322.972,145.778 L322.208,146.456 L319.156,146.372 Z M319.156,146.372" id="Shape"></path>
                <path d="M324.497,145.439 L324.497,146.202 L325.259,146.796 L327.125,146.711 L328.904,145.439 L328.988,144.508 L328.312,144.508 L327.04,145.27 L324.497,145.439 Z M324.497,145.439" id="Shape"></path>
                <path d="M329.498,147.389 L329.498,148.745 L330.685,148.575 L331.786,147.812 L333.736,146.796 L334.33,146.542 L334.33,145.609 L333.567,145.609 L331.786,146.202 L330.685,146.542 L330.345,147.22 L329.498,147.389 Z M329.498,147.389" id="Shape"></path>
                <path d="M336.449,136.031 L338.058,136.2 L339.415,136.879 L339.498,137.641 L337.804,137.811 L336.533,137.217 L336.449,136.031 Z M336.449,136.031" id="Shape"></path>
                <path d="M340.433,133.488 L341.788,136.793 L343.822,137.217 L346.197,139.337 L348.485,140.862 L349.079,141.88 L349.163,144.508 L351.368,146.202 L353.571,146.711 L354.927,147.389 L356.791,145.101 L357.724,145.016 L359.506,147.136 L360.437,148.915 L362.303,149.763 L364.166,149.847 L364.422,148.745 L362.556,146.118 L361.455,144.338 L361.114,143.49 L361.455,142.303 L358.318,139.676 L355.521,137.557 L353.486,136.793 L351.199,135.776 L348.061,135.183 L346.197,136.37 L344.67,136.539 L344.757,135.522 L344.757,134.25 L344.416,133.656 L343.145,133.064 L342.042,132.64 L341.365,132.809 L340.433,133.488 Z M340.433,133.488" id="Shape"></path>
                <path d="M362.388,142.473 L366.285,142.473 L367.303,141.117 L367.303,138.573 L366.626,138.658 L366.455,139.676 L365.947,140.607 L365.947,141.201 L365.438,141.201 L364.676,140.607 L364.166,140.607 L363.912,141.117 L363.149,141.287 L362.556,141.795 L362.388,142.473 Z M362.388,142.473" id="Shape"></path>
                <path d="M353.825,149.933 L354.589,149.933 L354.844,156.374 L355.521,162.562 L358.233,169.428 L359.759,177.651 L357.725,182.566 L353.147,189.941 L347.215,196.299 L345.942,196.978 L344.163,197.315 L342.723,198.503 L341.281,199.097 L340.178,198.841 L340.178,197.91 L338.907,197.91 L337.974,199.182 L336.873,198.333 L335.431,196.129 L334.924,193.502 L334.245,191.044 L336.025,189.518 L336.11,188.67 L335.177,188.67 L333.312,189.602 L332.974,190.704 L332.127,191.044 L331.955,189.434 L332.041,186.891 L331.023,185.873 L323.649,186.127 L317.971,187.229 L312.799,189.518 L310.85,189.857 L309.578,189.941 L308.221,188.161 L310.087,181.719 L311.189,174.684 L311.782,168.411 L317.122,165.614 L321.784,164.766 L327.973,159.087 L331.871,155.611 L333.821,155.527 L333.821,156.798 L336.278,156.798 L335.431,155.781 L335.602,154.679 L337.042,154.17 L339.075,151.628 L340.094,150.355 L341.281,150.355 L342.297,151.288 L344.926,151.713 L345.35,152.73 L343.822,156.629 L343.992,158.154 L344.926,159.172 L347.553,161.8 L349.079,161.546 L351.283,157.223 L351.877,153.747 L352.723,151.119 L353.825,149.933 Z M353.825,149.933" id="Shape"></path>
                <path d="M336.787,201.979 L337.721,201.809 L338.483,202.487 L339.755,202.063 L340.518,202.063 L341.111,202.148 L341.365,203.504 L339.755,204.86 L339.331,205.708 L338.229,206.641 L336.787,206.811 L335.517,206.641 L335.517,204.86 L336.278,202.827 L336.364,201.809 L336.787,201.979 Z M336.787,201.979" id="Shape"></path>
                <path d="M374.593,194.859 L375.271,195.791 L375.779,199.183 L375.779,201.047 L377.646,201.385 L377.646,202.572 L375.949,202.488 L374.255,203.674 L372.388,205.708 L371.118,207.403 L369.762,207.149 L369.932,205.539 L370.524,203.419 L372.136,202.657 L373.406,200.962 L373.914,198.418 L374.169,195.791 L374.593,194.859 Z M374.593,194.859" id="Shape"></path>
                <path d="M367.643,205.369 L368.744,206.641 L368.828,208.082 L366.965,208.76 L363.828,209.777 L361.455,211.642 L360.099,212.575 L359.08,214.016 L357.979,214.609 L355.775,214.694 L354.758,214.524 L354.503,212.829 L355.775,211.98 L358.912,210.965 L360.861,209.353 L363.489,208.251 L365.524,206.047 L367.643,205.369 Z M367.643,205.369" id="Shape"></path>
            </g>
        </g>
    </g>
</svg>